<?xml version="1.0" encoding="utf-8"?>
<!-- Generator: Adobe Illustrator 25.2.1, SVG Export Plug-In . SVG Version: 6.00 Build 0)  -->
<svg version="1.1" id="Layer_1" xmlns="http://www.w3.org/2000/svg" xmlns:xlink="http://www.w3.org/1999/xlink" x="0px" y="0px"
	 viewBox="0 0 1920 400" style="enable-background:new 0 0 1920 400;" xml:space="preserve">
<g>
	<path d="M248.07,293.2c-3.6,0-6.7-1.25-9.3-3.75c-2.6-2.5-3.9-5.65-3.9-9.45c0-3.6,1.3-6.65,3.9-9.15c2.6-2.5,5.7-3.75,9.3-3.75
		c11.6,0,22.5-2.2,32.7-6.6c10.2-4.4,19.1-10.4,26.7-18c7.6-7.6,13.6-16.5,18-26.7c4.4-10.2,6.6-21.1,6.6-32.7
		c0-11.6-2.2-22.45-6.59-32.55c-4.39-10.1-10.37-18.95-17.95-26.55c-7.58-7.6-16.46-13.6-26.63-18c-10.17-4.4-21.05-6.6-32.62-6.6
		h-34.11V280c0,3.8-1.32,6.95-3.95,9.45c-2.63,2.5-5.77,3.75-9.4,3.75c-3.64,0-6.78-1.25-9.41-3.75c-2.63-2.5-3.94-5.65-3.94-9.45
		V86.2c0-3.6,1.3-6.7,3.9-9.3c2.6-2.6,5.7-3.9,9.3-3.9h47.4c15.2,0,29.5,2.9,42.9,8.7c13.4,5.8,25.05,13.7,34.95,23.7
		c9.9,10,17.75,21.65,23.55,34.95c5.8,13.3,8.7,27.55,8.7,42.75c0,15.2-2.9,29.5-8.7,42.9c-5.8,13.4-13.65,25.05-23.55,34.95
		c-9.9,9.9-21.55,17.75-34.95,23.55C277.57,290.3,263.26,293.2,248.07,293.2z"/>
	<path d="M536.37,76c2.8,2.2,4.45,5.05,4.95,8.55c0.5,3.5-0.35,6.65-2.55,9.45l-72.9,93.3V280c0,3.6-1.25,6.6-3.75,9
		c-2.5,2.4-5.45,3.6-8.85,3.6c-3.8,0-6.9-1.2-9.3-3.6c-2.4-2.4-3.6-5.4-3.6-9v-92.7l-67.5-86.1c-1-1.4-1.9-2.3-2.7-2.7
		c-0.8-0.4-1.4-0.6-1.8-0.6c-3.2-0.2-6-1.45-8.4-3.75c-2.4-2.3-3.7-5.15-3.9-8.55c-0.2-3.6,0.9-6.7,3.3-9.3c2.4-2.6,5.3-4,8.7-4.2
		c0.6,0,1.7,0.05,3.3,0.15c1.6,0.1,3.6,0.55,6,1.35c2.4,0.8,4.95,2.1,7.65,3.9c2.7,1.8,5.35,4.3,7.95,7.5l60.3,77.1l65.1-84
		c2.2-2.8,5.05-4.4,8.55-4.8C530.41,72.9,533.56,73.8,536.37,76z"/>
	<path d="M725.09,292.6h-163.5c-5.2,0-9.1-2.4-11.7-7.2c-2.2-5-1.7-9.6,1.5-13.8l142.2-175.5h-126.6c-3.6,0-6.7-1.3-9.3-3.9
		c-2.6-2.6-3.9-5.7-3.9-9.3c0-3.6,1.3-6.65,3.9-9.15c2.6-2.5,5.7-3.75,9.3-3.75h153.6c5.6,0,9.5,2.4,11.7,7.2
		c2.2,5,1.7,9.6-1.5,13.8l-142.2,175.5h136.5c3.6,0,6.7,1.3,9.3,3.9c2.6,2.6,3.9,5.7,3.9,9.3c0,3.6-1.3,6.65-3.9,9.15
		C731.79,291.35,728.69,292.6,725.09,292.6z"/>
	<path d="M961.19,274c1.6,3.4,1.8,6.75,0.6,10.05c-1.2,3.3-3.5,5.75-6.9,7.35c-3.4,1.6-6.8,1.8-10.2,0.6c-3.4-1.2-5.9-3.5-7.5-6.9
		l-23.7-51h-60.3c-3.8,0-6.95-1.25-9.45-3.75c-2.5-2.5-3.75-5.65-3.75-9.45c0-3.6,1.25-6.7,3.75-9.3c2.5-2.6,5.65-3.9,9.45-3.9h47.7
		l-42-90l-74.1,167.1c-1.2,2.6-2.9,4.55-5.1,5.85c-2.2,1.3-4.6,1.95-7.2,1.95c-1.8,0-3.6-0.3-5.4-0.9c-3.4-1.6-5.75-4.1-7.05-7.5
		c-1.3-3.4-1.15-6.8,0.45-10.2l86.1-193.5c1-2.4,2.6-4.3,4.8-5.7c2.2-1.4,4.6-2.1,7.2-2.1c2.6,0,5,0.65,7.2,1.95
		c2.2,1.3,3.8,3.15,4.8,5.55L961.19,274z"/>
	<path d="M1039.25,292c-10.22,0-19.89-1.95-29.01-5.85c-9.12-3.9-17.08-9.2-23.9-15.9c-6.82-6.7-12.17-14.6-16.08-23.7
		c-3.91-9.1-5.86-18.85-5.86-29.25c0-3.6,1.31-6.7,3.94-9.3c2.63-2.6,5.77-3.9,9.41-3.9c3.64,0,6.77,1.3,9.4,3.9
		c2.63,2.6,3.95,5.7,3.95,9.3c0,6.6,1.24,12.85,3.74,18.75c2.49,5.9,5.93,11.05,10.32,15.45c4.39,4.4,9.52,7.85,15.4,10.35
		c5.88,2.5,12.11,3.75,18.69,3.75c6.58,0,12.81-1.25,18.69-3.75c5.88-2.5,11.01-5.95,15.4-10.35c4.39-4.4,7.88-9.55,10.47-15.45
		c2.59-5.9,3.89-12.15,3.89-18.75V85c0-3.8,1.26-6.95,3.79-9.45c2.53-2.5,5.71-3.75,9.56-3.75c3.64,0,6.77,1.25,9.4,3.75
		c2.63,2.5,3.95,5.65,3.95,9.45v132.3c0,10.4-1.95,20.15-5.86,29.25c-3.91,9.1-9.27,17-16.08,23.7c-6.82,6.7-14.78,12-23.9,15.9
		C1059.44,290.05,1049.67,292,1039.25,292z"/>
	<path d="M1320.14,292.9c-4.4,0-7.8-1.7-10.2-5.1l-125.1-164.4V280c0,3.6-1.25,6.65-3.75,9.15c-2.5,2.5-5.55,3.75-9.15,3.75
		c-3.4,0-6.4-1.25-9-3.75c-2.6-2.5-3.9-5.55-3.9-9.15V85.3c0-2.8,0.8-5.3,2.4-7.5c1.6-2.2,3.8-3.7,6.6-4.5c2.6-1,5.2-1.1,7.8-0.3
		c2.6,0.8,4.8,2.3,6.6,4.5l124.8,164.7V85.3c0-3.4,1.25-6.4,3.75-9c2.5-2.6,5.55-3.9,9.15-3.9c3.6,0,6.65,1.3,9.15,3.9
		c2.5,2.6,3.75,5.6,3.75,9V280c0,2.8-0.8,5.3-2.4,7.5c-1.6,2.2-3.7,3.8-6.3,4.8C1322.34,292.69,1320.93,292.9,1320.14,292.9z"/>
	<path d="M1521.76,265.3c3.6,0,6.7,1.25,9.3,3.75c2.6,2.5,3.9,5.65,3.9,9.45c0,3.6-1.3,6.7-3.9,9.3c-2.6,2.6-5.7,3.9-9.3,3.9
		h-129.15c-3.64,0-6.78-1.3-9.41-3.9c-2.63-2.6-3.94-5.7-3.94-9.3V85.3c0-3.6,1.31-6.7,3.94-9.3c2.63-2.6,5.77-3.9,9.41-3.9h129.15
		c3.6,0,6.7,1.3,9.3,3.9c2.6,2.6,3.9,5.7,3.9,9.3c0,3.8-1.3,6.95-3.9,9.45c-2.6,2.5-5.7,3.75-9.3,3.75h-115.8v70.2h77.1
		c3.6,0,6.7,1.3,9.3,3.9c2.6,2.6,3.9,5.7,3.9,9.3c0,3.6-1.3,6.7-3.9,9.3c-2.6,2.6-5.7,3.9-9.3,3.9h-77.1v70.2H1521.76z"/>
	<path d="M1736.32,294.1c-5.8,0-10.95-0.8-15.45-2.4c-4.5-1.6-9.25-5.3-14.25-11.1c-2.2-2.4-5.15-6.35-8.85-11.85
		c-3.7-5.5-8.15-12.05-13.35-19.65c-2.8-4-5.35-7.6-7.65-10.8c-2.3-3.2-3.95-5.6-4.95-7.2l-1.2-1.8c-2.6-3.4-4.9-5.85-6.9-7.35
		c-2-1.5-5.3-2.25-9.9-2.25c-3.8,0-7.05-1.3-9.75-3.9c-2.7-2.6-4.05-5.8-4.05-9.6c0-3.8,1.35-7.05,4.05-9.75
		c2.7-2.7,5.95-4.05,9.75-4.05c6.4,0,12.45-1.25,18.15-3.75c5.7-2.5,10.65-5.85,14.85-10.05s7.55-9.1,10.05-14.7
		c2.5-5.6,3.75-11.6,3.75-18c0-6.4-1.25-12.45-3.75-18.15c-2.5-5.7-5.85-10.65-10.05-14.85c-4.2-4.2-9.15-7.55-14.85-10.05
		c-5.7-2.5-11.75-3.75-18.15-3.75h-63v181.5c0,3.8-1.3,7-3.9,9.6c-2.6,2.6-5.8,3.9-9.6,3.9c-3.8,0-7.05-1.3-9.75-3.9
		c-2.7-2.6-4.05-5.8-4.05-9.6V85.3c0-3.8,1.35-7,4.05-9.6c2.7-2.6,5.95-3.9,9.75-3.9h76.5c10.2,0,19.8,1.95,28.8,5.85
		c9,3.9,16.85,9.2,23.55,15.9c6.7,6.7,12,14.55,15.9,23.55c3.9,9,5.85,18.6,5.85,28.8c0,13.8-3.45,26.35-10.35,37.65
		c-6.9,11.3-16.05,20.15-27.45,26.55c0.6,0.8,1.3,1.8,2.1,3l1.2,1.5c1.4,1.8,3.3,4.4,5.7,7.8c2.4,3.4,5,7.2,7.8,11.4
		c1.8,2.6,3.7,5.4,5.7,8.4c2,3,3.95,5.85,5.85,8.55c1.9,2.7,3.6,5.15,5.1,7.35c1.5,2.2,2.75,3.8,3.75,4.8c1.8,2,3.05,3.15,3.75,3.45
		c0.7,0.3,2.45,0.45,5.25,0.45c3.8,0,7,1.35,9.6,4.05c2.6,2.7,3.9,5.95,3.9,9.75c0,3.8-1.3,7-3.9,9.6
		C1743.32,292.79,1740.12,294.1,1736.32,294.1z"/>
</g>
</svg>
